<?xml version="1.0" encoding="UTF-8" standalone="no"?>
<!-- Created with Inkscape (http://www.inkscape.org/) -->

<svg
   xmlns:osb="http://www.openswatchbook.org/uri/2009/osb"
   xmlns:dc="http://purl.org/dc/elements/1.1/"
   xmlns:cc="http://creativecommons.org/ns#"
   xmlns:rdf="http://www.w3.org/1999/02/22-rdf-syntax-ns#"
   xmlns:svg="http://www.w3.org/2000/svg"
   xmlns="http://www.w3.org/2000/svg"
   xmlns:xlink="http://www.w3.org/1999/xlink"
   xmlns:sodipodi="http://sodipodi.sourceforge.net/DTD/sodipodi-0.dtd"
   xmlns:inkscape="http://www.inkscape.org/namespaces/inkscape"
   width="210mm"
   height="297mm"
   viewBox="0 0 210 297"
   version="1.1"
   id="svg8"
   inkscape:version="0.92.4 (5da689c313, 2019-01-14)"
   sodipodi:docname="anguila.svg">
  <defs
     id="defs2">
    <linearGradient
       osb:paint="gradient"
       id="linearGradient1009">
      <stop
         id="stop1017"
         offset="0"
         style="stop-color:#ff0000;stop-opacity:1;" />
      <stop
         id="stop1019"
         offset="1"
         style="stop-color:#ff0000;stop-opacity:0;" />
    </linearGradient>
    <linearGradient
       inkscape:collect="always"
       id="linearGradient1009-4-3-3">
      <stop
         style="stop-color:#000400;stop-opacity:1"
         offset="0"
         id="stop1005" />
      <stop
         style="stop-color:#ff0000;stop-opacity:0;"
         offset="1"
         id="stop1007" />
    </linearGradient>
    <radialGradient
       inkscape:collect="always"
       xlink:href="#linearGradient1009-4-3-3"
       id="radialGradient1029"
       cx="7.5617366"
       cy="10.662414"
       fx="7.5617366"
       fy="10.662414"
       r="0.82572101"
       gradientTransform="matrix(1.3190914,-0.59379197,0.37996024,0.84407048,-6.4641779,6.1422864)"
       gradientUnits="userSpaceOnUse" />
    <linearGradient
       inkscape:collect="always"
       xlink:href="#linearGradient1009-4-3-3"
       id="linearGradient1037"
       x1="8.3855906"
       y1="5.4723191"
       x2="29.920795"
       y2="5.4723191"
       gradientUnits="userSpaceOnUse" />
    <linearGradient
       inkscape:collect="always"
       xlink:href="#linearGradient1009-4-3-3"
       id="linearGradient1052"
       x1="37.32515"
       y1="16.399925"
       x2="70.463257"
       y2="9.1751995"
       gradientUnits="userSpaceOnUse" />
    <radialGradient
       inkscape:collect="always"
       xlink:href="#linearGradient1009-4-3-3"
       id="radialGradient1029-3"
       cx="7.5617366"
       cy="10.662414"
       fx="7.5617366"
       fy="10.662414"
       r="0.82572103"
       gradientTransform="matrix(1.3190914,-0.59379197,0.37996024,0.84407048,60.673393,24.508607)"
       gradientUnits="userSpaceOnUse" />
    <linearGradient
       inkscape:collect="always"
       xlink:href="#linearGradient1009-4-3-3"
       id="linearGradient1694"
       gradientUnits="userSpaceOnUse"
       x1="37.32515"
       y1="16.399925"
       x2="70.463257"
       y2="9.1751995"
       gradientTransform="translate(67.137571,18.366321)" />
    <linearGradient
       inkscape:collect="always"
       xlink:href="#linearGradient1009-4-3-3"
       id="linearGradient1696"
       gradientUnits="userSpaceOnUse"
       x1="8.3855906"
       y1="5.4723191"
       x2="29.920795"
       y2="5.4723191"
       gradientTransform="translate(67.137571,18.366321)" />
    <radialGradient
       inkscape:collect="always"
       xlink:href="#linearGradient1009-4-3-3"
       id="radialGradient1029-3-7"
       cx="7.5617366"
       cy="10.662414"
       fx="7.5617366"
       fy="10.662414"
       r="0.82572103"
       gradientTransform="matrix(1.3190914,-0.59379196,0.37996024,0.84407048,127.76417,24.433011)"
       gradientUnits="userSpaceOnUse" />
    <linearGradient
       gradientTransform="translate(134.22834,18.290725)"
       inkscape:collect="always"
       xlink:href="#linearGradient1009-4-3-3"
       id="linearGradient1696-6"
       gradientUnits="userSpaceOnUse"
       x1="8.3855906"
       y1="5.4723191"
       x2="29.920795"
       y2="5.4723191" />
    <linearGradient
       gradientTransform="translate(66.713614,-0.79285185)"
       inkscape:collect="always"
       xlink:href="#linearGradient1009-4-3-3"
       id="linearGradient1694-5"
       gradientUnits="userSpaceOnUse"
       x1="37.32515"
       y1="16.399925"
       x2="70.463257"
       y2="9.1751995" />
    <radialGradient
       inkscape:collect="always"
       xlink:href="#linearGradient1009-4-3-3"
       id="radialGradient1029-3-7-1"
       cx="7.5617366"
       cy="10.662414"
       fx="7.5617366"
       fy="10.662414"
       r="0.82572103"
       gradientTransform="matrix(1.3190914,-0.59379196,0.37996024,0.84407048,-4.930129,39.149922)"
       gradientUnits="userSpaceOnUse" />
    <linearGradient
       gradientTransform="translate(-66.00365,16.457949)"
       inkscape:collect="always"
       xlink:href="#linearGradient1009-4-3-3"
       id="linearGradient1696-6-9"
       gradientUnits="userSpaceOnUse"
       x1="8.3855906"
       y1="5.4723191"
       x2="29.920795"
       y2="5.4723191" />
    <linearGradient
       gradientTransform="translate(0.756761,34.107014)"
       inkscape:collect="always"
       xlink:href="#linearGradient1009-4-3-3"
       id="linearGradient1694-5-3"
       gradientUnits="userSpaceOnUse"
       x1="37.32515"
       y1="16.399925"
       x2="70.463257"
       y2="9.1751995" />
    <radialGradient
       inkscape:collect="always"
       xlink:href="#linearGradient1009-4-3-3"
       id="radialGradient1029-3-7-1-3"
       cx="7.5617366"
       cy="10.662414"
       fx="7.5617366"
       fy="10.662414"
       r="0.82572103"
       gradientTransform="matrix(1.3190914,-0.59379196,0.37996024,0.84407048,61.073511,38.995413)"
       gradientUnits="userSpaceOnUse" />
    <linearGradient
       gradientTransform="translate(67.137561,34.669761)"
       inkscape:collect="always"
       xlink:href="#linearGradient1009-4-3-3"
       id="linearGradient1696-6-9-9"
       gradientUnits="userSpaceOnUse"
       x1="8.3855906"
       y1="5.4723191"
       x2="29.920795"
       y2="5.4723191" />
    <linearGradient
       gradientTransform="translate(66.760401,33.952505)"
       inkscape:collect="always"
       xlink:href="#linearGradient1009-4-3-3"
       id="linearGradient1694-5-3-7"
       gradientUnits="userSpaceOnUse"
       x1="37.32515"
       y1="16.399925"
       x2="70.463257"
       y2="9.1751995" />
    <radialGradient
       inkscape:collect="always"
       xlink:href="#linearGradient1009-4-3-3"
       id="radialGradient1029-3-7-1-3-1"
       cx="7.5617366"
       cy="10.662414"
       fx="7.5617366"
       fy="10.662414"
       r="0.82572103"
       gradientTransform="matrix(1.3190914,-0.59379196,0.37996024,0.84407048,128.30602,39.864758)"
       gradientUnits="userSpaceOnUse" />
    <linearGradient
       gradientTransform="translate(67.09076,16.227845)"
       inkscape:collect="always"
       xlink:href="#linearGradient1009-4-3-3"
       id="linearGradient1696-6-9-9-6"
       gradientUnits="userSpaceOnUse"
       x1="8.3855906"
       y1="5.4723191"
       x2="29.920795"
       y2="5.4723191" />
    <linearGradient
       gradientTransform="translate(133.85117,34.935243)"
       inkscape:collect="always"
       xlink:href="#linearGradient1009-4-3-3"
       id="linearGradient1694-5-3-7-7"
       gradientUnits="userSpaceOnUse"
       x1="37.32515"
       y1="16.399925"
       x2="70.463257"
       y2="9.1751995" />
    <linearGradient
       inkscape:collect="always"
       xlink:href="#linearGradient1009-4-3-3"
       id="linearGradient1956"
       gradientUnits="userSpaceOnUse"
       gradientTransform="translate(134.22833,34.594166)"
       x1="8.3855906"
       y1="5.4723191"
       x2="29.920795"
       y2="5.4723191" />
    <linearGradient
       inkscape:collect="always"
       xlink:href="#linearGradient1009-4-3-3"
       id="linearGradient1970"
       gradientUnits="userSpaceOnUse"
       gradientTransform="translate(1.133921,34.82427)"
       x1="8.3855906"
       y1="5.4723191"
       x2="29.920795"
       y2="5.4723191" />
    <linearGradient
       inkscape:collect="always"
       xlink:href="#linearGradient1009-4-3-3"
       id="linearGradient1979"
       gradientUnits="userSpaceOnUse"
       gradientTransform="translate(133.85118,17.573469)"
       x1="37.32515"
       y1="16.399925"
       x2="70.463257"
       y2="9.1751995" />
  </defs>
  <sodipodi:namedview
     id="base"
     pagecolor="#ffffff"
     bordercolor="#666666"
     borderopacity="1.0"
     inkscape:pageopacity="0.0"
     inkscape:pageshadow="2"
     inkscape:zoom="1.4"
     inkscape:cx="381.4914"
     inkscape:cy="1084.4832"
     inkscape:document-units="mm"
     inkscape:current-layer="layer4"
     showgrid="false"
     inkscape:window-width="1920"
     inkscape:window-height="1013"
     inkscape:window-x="-9"
     inkscape:window-y="-9"
     inkscape:window-maximized="1"
     showguides="true"
     inkscape:guide-bbox="true">
    <sodipodi:guide
       position="229.43154,224.51786"
       orientation="1,0"
       id="guide1950"
       inkscape:locked="false" />
  </sodipodi:namedview>
  <metadata
     id="metadata5">
    <rdf:RDF>
      <cc:Work
         rdf:about="">
        <dc:format>image/svg+xml</dc:format>
        <dc:type
           rdf:resource="http://purl.org/dc/dcmitype/StillImage" />
        <dc:title></dc:title>
      </cc:Work>
    </rdf:RDF>
  </metadata>
  <g
     inkscape:groupmode="layer"
     id="layer7"
     inkscape:label="Fondo"
     style="display:inline">
    <g
       id="g2016">
      <path
         sodipodi:nodetypes="cccccccc"
         inkscape:connector-curvature="0"
         id="path14-1"
         d="m 102.61198,30.567173 2.853,2.405749 3.87327,1.015115 5.78035,0.219039 4.42837,-0.137399 6.03476,-1.568242 c 0.816,-0.381946 1.43025,-1.198123 5.45517,-4.193209 -2.07789,0.643352 -5.6342,0.963588 -7.2029,1.610475"
         style="display:inline;fill:url(#linearGradient1694);fill-opacity:1;stroke:#000000;stroke-width:0.16500001;stroke-linecap:butt;stroke-linejoin:miter;stroke-miterlimit:4;stroke-dasharray:none;stroke-opacity:1" />
      <path
         inkscape:connector-curvature="0"
         id="path12-9"
         d="m 75.642035,26.828746 0.992188,-2.031622 1.960751,-2.102493 4.015997,-1.866257 4.606585,-0.566965 3.921503,0.708706 2.834821,0.188988 1.181174,0.732329 -0.992185,1.110305"
         style="display:inline;fill:url(#linearGradient1696);fill-opacity:1;stroke:#000000;stroke-width:0.16500001;stroke-linecap:butt;stroke-linejoin:miter;stroke-miterlimit:4;stroke-dasharray:none;stroke-opacity:1"
         sodipodi:nodetypes="ccccccccc" />
      <path
         inkscape:connector-curvature="0"
         id="path10-4"
         d="m 69.783404,30.844743 4.346726,-3.401786 8.976935,-3.685268 11.055804,-0.755952 7.087051,1.984375 6.89807,2.570238 4.15774,1.228423 5.66964,-0.661459 5.85863,1.795387 -6.3311,1.889881 -5.57515,0.472471 -7.08705,-1.228423 -6.142119,-1.152827 -6.142111,-1.133929 -6.803572,0.377976 -6.236607,1.417411 -5.291667,1.039434 z"
         style="display:inline;fill:#805700;fill-opacity:1;stroke:#000000;stroke-width:0.26499999;stroke-linecap:butt;stroke-linejoin:miter;stroke-miterlimit:4;stroke-dasharray:none;stroke-opacity:1"
         sodipodi:nodetypes="cccccccccccccccccc" />
      <path
         sodipodi:nodetypes="cccc"
         inkscape:connector-curvature="0"
         id="path16-6"
         d="m 76.982669,31.06326 1.541435,-1.683175 v -1.228423 l -0.8032,-0.803199"
         style="display:inline;fill:none;stroke:#000000;stroke-width:0.26458332px;stroke-linecap:butt;stroke-linejoin:miter;stroke-opacity:1" />
      <path
         sodipodi:nodetypes="cccc"
         inkscape:connector-curvature="0"
         id="path18-2"
         d="m 73.983961,29.289121 c 0.293536,-0.121013 0.509837,-1.140103 1.257952,-0.643741 0.09139,0.141741 0.02163,0.47247 -0.194894,0.614211 -0.242763,0.319294 -0.897413,0.222208 -1.063058,0.02953 z"
         style="fill:url(#radialGradient1029-3);fill-opacity:1;stroke:#000000;stroke-width:0.2;stroke-linecap:butt;stroke-linejoin:miter;stroke-miterlimit:4;stroke-dasharray:none;stroke-opacity:1" />
    </g>
    <g
       id="g2024">
      <rect
         style="fill:#805700;fill-opacity:0;fill-rule:nonzero;stroke:none;stroke-width:0.2;stroke-miterlimit:4;stroke-dasharray:none;stroke-opacity:1"
         id="rect1609-2-3"
         width="63.008801"
         height="16.303438"
         x="136.41183"
         y="19.978779" />
      <path
         sodipodi:nodetypes="cccccccc"
         inkscape:connector-curvature="0"
         id="path14-1-6"
         d="m 169.32559,29.774322 2.853,2.405749 3.54255,0.259163 3.84322,0.03005 5.04257,-0.657117 5.13708,-0.906783 c 0.816,-0.381946 3.98159,-0.394924 8.00651,-3.39001 -2.07789,0.643352 -7.86292,0.478131 -9.43162,1.125018"
         style="display:inline;fill:url(#linearGradient1979);fill-opacity:1;stroke:#000000;stroke-width:0.16500001;stroke-linecap:butt;stroke-linejoin:miter;stroke-miterlimit:4;stroke-dasharray:none;stroke-opacity:1" />
      <path
         inkscape:connector-curvature="0"
         id="path12-9-9"
         d="m 142.73281,26.75315 0.99219,-2.031622 1.39378,-2.763951 2.74033,-1.157552 4.89007,0.09449 4.8192,0.661458 3.07105,0.472471 0.61421,0.897693 v 0"
         style="display:inline;fill:url(#linearGradient1696-6);fill-opacity:1;stroke:#000000;stroke-width:0.16500001;stroke-linecap:butt;stroke-linejoin:miter;stroke-miterlimit:4;stroke-dasharray:none;stroke-opacity:1"
         sodipodi:nodetypes="ccccccccc" />
      <path
         inkscape:connector-curvature="0"
         id="path10-4-5"
         d="m 136.87418,30.769148 4.34673,-3.401786 8.97693,-3.685268 11.0558,-0.755953 7.08706,1.984375 4.29218,1.367525 4.15774,1.228424 5.66964,-0.66146 5.85864,1.795388 -6.33111,1.889881 -5.57515,0.472471 -7.08705,-1.228423 -3.4026,-0.952375 -6.27575,-0.131668 -6.80357,0.377976 -6.2366,1.417411 -5.29167,1.039434 z"
         style="display:inline;fill:#805700;fill-opacity:1;stroke:#000000;stroke-width:0.26499999;stroke-linecap:butt;stroke-linejoin:miter;stroke-miterlimit:4;stroke-dasharray:none;stroke-opacity:1"
         sodipodi:nodetypes="cccccccccccccccccc" />
      <path
         sodipodi:nodetypes="cccc"
         inkscape:connector-curvature="0"
         id="path16-6-5"
         d="m 144.07344,30.987665 1.54144,-1.683175 v -1.228423 l -0.8032,-0.8032"
         style="display:inline;fill:none;stroke:#000000;stroke-width:0.26458332px;stroke-linecap:butt;stroke-linejoin:miter;stroke-opacity:1" />
      <path
         sodipodi:nodetypes="cccc"
         inkscape:connector-curvature="0"
         id="path18-2-7"
         d="m 141.07474,29.213526 c 0.29353,-0.121013 0.50983,-1.140104 1.25795,-0.643741 0.0914,0.141741 0.0216,0.47247 -0.1949,0.614211 -0.24276,0.319294 -0.89741,0.222208 -1.06305,0.02953 z"
         style="fill:url(#radialGradient1029-3-7);fill-opacity:1;stroke:#000000;stroke-width:0.2;stroke-linecap:butt;stroke-linejoin:miter;stroke-miterlimit:4;stroke-dasharray:none;stroke-opacity:1" />
    </g>
    <g
       id="g2009">
      <rect
         style="fill:#805700;fill-opacity:0;fill-rule:nonzero;stroke:none;stroke-width:0.2;stroke-miterlimit:4;stroke-dasharray:none;stroke-opacity:1"
         id="rect1609-2-3-3"
         width="63.008801"
         height="16.303438"
         x="3.3174226"
         y="36.512321" />
      <path
         sodipodi:nodetypes="cccccccc"
         inkscape:connector-curvature="0"
         id="path14-1-6-2"
         d="m 36.231171,46.307868 2.853,2.405749 3.54255,0.259163 4.173949,-0.489667 4.5701,-1.129588 5.184327,-1.190265 c 0.816,-0.381946 4.076084,0.880746 8.101004,-2.114341 -2.07789,0.643352 -7.86292,-1.109371 -9.43162,-0.462484"
         style="display:inline;fill:url(#linearGradient1694-5-3);fill-opacity:1;stroke:#000000;stroke-width:0.16500001;stroke-linecap:butt;stroke-linejoin:miter;stroke-miterlimit:4;stroke-dasharray:none;stroke-opacity:1" />
      <path
         inkscape:connector-curvature="0"
         id="path12-9-9-7"
         d="m 9.638391,43.286695 0.99218,-2.031622 2.811201,-2.527716 3.590776,-1.110305 3.567143,-0.803203 6.000376,0.377977 3.496283,0.14174 -1.937129,2.126117 v 0"
         style="display:inline;fill:url(#linearGradient1970);fill-opacity:1;stroke:#000000;stroke-width:0.16500001;stroke-linecap:butt;stroke-linejoin:miter;stroke-miterlimit:4;stroke-dasharray:none;stroke-opacity:1"
         sodipodi:nodetypes="ccccccccc" />
      <path
         inkscape:connector-curvature="0"
         id="path10-4-5-9"
         d="m 3.779751,45.186027 4.34673,-3.401787 4.232365,-1.705598 5.642268,-0.562259 10.158107,-0.0567 7.08706,1.984375 4.29218,0.849104 4.15774,0.159345 5.66964,-0.66146 5.85864,1.795388 -6.33111,1.889882 -5.57515,0.472471 -7.08705,0.35908 -3.686082,-0.555504 -5.992268,-0.528543 -6.709076,-0.557515 -6.331104,0.236236 -5.29167,1.039433 z"
         style="display:inline;fill:#805700;fill-opacity:1;stroke:#000000;stroke-width:0.26499999;stroke-linecap:butt;stroke-linejoin:miter;stroke-miterlimit:4;stroke-dasharray:none;stroke-opacity:1"
         sodipodi:nodetypes="ccccccccccccccccccc" />
      <path
         sodipodi:nodetypes="cccc"
         inkscape:connector-curvature="0"
         id="path16-6-5-4"
         d="m 10.36481,45.536836 1.54143,-1.683176 v -1.228423 l -0.8032,-0.803199"
         style="display:inline;fill:none;stroke:#000000;stroke-width:0.26458332px;stroke-linecap:butt;stroke-linejoin:miter;stroke-opacity:1" />
      <path
         sodipodi:nodetypes="cccc"
         inkscape:connector-curvature="0"
         id="path18-2-7-1"
         d="m 8.380441,43.930436 c 0.29354,-0.121013 0.50984,-1.140104 1.25795,-0.643741 0.0914,0.141741 0.0216,0.47247 -0.19489,0.614211 -0.24276,0.319294 -0.89741,0.222208 -1.06306,0.02953 z"
         style="fill:url(#radialGradient1029-3-7-1);fill-opacity:1;stroke:#000000;stroke-width:0.2;stroke-linecap:butt;stroke-linejoin:miter;stroke-miterlimit:4;stroke-dasharray:none;stroke-opacity:1" />
    </g>
    <g
       id="g2001">
      <rect
         style="fill:#805700;fill-opacity:0;fill-rule:nonzero;stroke:none;stroke-width:0.2;stroke-miterlimit:4;stroke-dasharray:none;stroke-opacity:1"
         id="rect1609-2-3-3-0"
         width="63.008801"
         height="16.303438"
         x="69.32106"
         y="36.357811" />
      <path
         sodipodi:nodetypes="ccccccscc"
         inkscape:connector-curvature="0"
         id="path14-1-6-2-6"
         d="m 100.11814,45.624192 5.43739,1.799021 3.87664,0.593249 3.9735,-0.422849 4.23601,-0.995953 5.05069,-1.457535 c 0,0 2.31815,0.105291 4.77149,-1.101332 1.89517,-0.932095 2.3316,-2.181777 4.53223,-3.819339 -2.07789,0.643352 -11.31594,2.036418 -12.88464,2.683305"
         style="display:inline;fill:url(#linearGradient1694-5-3-7);fill-opacity:1;stroke:#000000;stroke-width:0.16500001;stroke-linecap:butt;stroke-linejoin:miter;stroke-miterlimit:4;stroke-dasharray:none;stroke-opacity:1" />
      <path
         inkscape:connector-curvature="0"
         id="path12-9-9-7-5"
         d="m 75.64203,43.132186 0.992179,-2.031622 2.811202,-2.527716 3.590776,-1.110305 3.567143,-0.803203 6.40128,0.110707 3.095379,0.40901 4.848091,0.772338 -6.78522,1.353779 v 0"
         style="display:inline;fill:url(#linearGradient1696-6-9-9);fill-opacity:1;stroke:#000000;stroke-width:0.16500001;stroke-linecap:butt;stroke-linejoin:miter;stroke-miterlimit:4;stroke-dasharray:none;stroke-opacity:1"
         sodipodi:nodetypes="cccccccccc" />
      <path
         inkscape:connector-curvature="0"
         id="path10-4-5-9-9"
         d="m 71.370889,45.031518 4.346731,-3.401787 2.644864,-1.705598 5.642269,-0.562259 10.158107,-0.0567 5.216172,1.449836 2.843688,0.319936 5.36045,0.693885 5.66964,-0.66146 5.85864,1.795388 -6.33111,1.889882 -5.57515,0.47247 -7.08705,0.359081 -1.569414,-0.02634 -5.992266,-0.528542 -2.787229,-1.562171 -3.654577,-0.331692 -3.303207,0.430672 -3.295168,1.141912 -3.704169,1.039432 z"
         style="display:inline;fill:#805700;fill-opacity:1;stroke:#000000;stroke-width:0.26499999;stroke-linecap:butt;stroke-linejoin:miter;stroke-miterlimit:4;stroke-dasharray:none;stroke-opacity:1"
         sodipodi:nodetypes="ccccccccccccccccccccc" />
      <path
         sodipodi:nodetypes="cccc"
         inkscape:connector-curvature="0"
         id="path16-6-5-4-5"
         d="m 76.368448,45.382327 1.54143,-1.683176 v -1.228423 l -0.803199,-0.803199"
         style="display:inline;fill:none;stroke:#000000;stroke-width:0.26458332px;stroke-linecap:butt;stroke-linejoin:miter;stroke-opacity:1" />
      <path
         sodipodi:nodetypes="cccc"
         inkscape:connector-curvature="0"
         id="path18-2-7-1-3"
         d="m 74.38408,43.775927 c 0.293539,-0.121013 0.509839,-1.140104 1.25795,-0.643741 0.0914,0.141741 0.0216,0.47247 -0.194891,0.614211 -0.24276,0.319294 -0.897409,0.222208 -1.063059,0.02953 z"
         style="fill:url(#radialGradient1029-3-7-1-3);fill-opacity:1;stroke:#000000;stroke-width:0.2;stroke-linecap:butt;stroke-linejoin:miter;stroke-miterlimit:4;stroke-dasharray:none;stroke-opacity:1" />
    </g>
    <g
       id="g1993">
      <rect
         style="fill:none;fill-opacity:0;fill-rule:nonzero;stroke:none;stroke-width:0.2;stroke-miterlimit:4;stroke-dasharray:none;stroke-opacity:1"
         id="rect1609-2-3-3-0-5"
         width="63.008801"
         height="16.303438"
         x="136.41183"
         y="36.282215" />
      <path
         sodipodi:nodetypes="ccccccscc"
         inkscape:connector-curvature="0"
         id="path14-1-6-2-6-6"
         d="m 167.20891,46.60693 5.43739,1.799022 3.87664,0.593249 3.26478,-0.611837 c 1.66514,-0.718549 3.56422,-2.291373 5.60619,-2.507858 l 3.91676,-0.323607 c 1.51592,-0.260756 3.79411,0.417437 5.24396,-0.534368 2.29693,-1.507902 2.36155,-2.376459 4.53223,-3.819339 -2.07789,0.643352 -11.31594,2.036418 -12.88464,2.683305"
         style="display:inline;fill:url(#linearGradient1694-5-3-7-7);fill-opacity:1;stroke:#000000;stroke-width:0.16500001;stroke-linecap:butt;stroke-linejoin:miter;stroke-miterlimit:4;stroke-dasharray:none;stroke-opacity:1" />
      <path
         inkscape:connector-curvature="0"
         id="path12-9-9-7-5-8"
         d="m 142.7328,43.056591 0.99218,-2.031622 4.37035,-1.771764 4.39398,-1.015811 3.3309,-0.755956 5.17286,0.252449 3.09538,0.03103 3.9504,0.11088 -3.33619,1.401026 -3.44903,1.011086"
         style="display:inline;fill:url(#linearGradient1956);fill-opacity:1;stroke:#000000;stroke-width:0.16500001;stroke-linecap:butt;stroke-linejoin:miter;stroke-miterlimit:4;stroke-dasharray:none;stroke-opacity:1"
         sodipodi:nodetypes="cccccccccc" />
      <path
         inkscape:connector-curvature="0"
         id="path10-4-5-9-9-2"
         d="m 138.46166,46.014256 4.34673,-3.401787 2.64486,-1.705598 5.64227,-0.562259 10.15811,-0.0567 5.21617,1.449836 2.84369,0.319936 5.36045,0.693885 5.66964,-0.66146 5.85864,1.795388 -6.33111,1.889882 -5.57515,0.47247 -7.08705,0.359081 -1.56942,-0.02634 -5.99226,-0.528542 -2.78723,-1.562172 -3.65458,-0.331692 -3.3032,0.430672 -3.29517,1.141913 -3.70417,1.039432 z"
         style="display:inline;fill:#805700;fill-opacity:1;stroke:#000000;stroke-width:0.26499999;stroke-linecap:butt;stroke-linejoin:miter;stroke-miterlimit:4;stroke-dasharray:none;stroke-opacity:1"
         sodipodi:nodetypes="ccccccccccccccccccccc" />
      <path
         sodipodi:nodetypes="cccc"
         inkscape:connector-curvature="0"
         id="path16-6-5-4-5-0"
         d="m 144.87663,46.346167 1.54143,-1.683176 v -1.228423 l -0.8032,-0.803199"
         style="display:inline;fill:none;stroke:#000000;stroke-width:0.26458332px;stroke-linecap:butt;stroke-linejoin:miter;stroke-opacity:1" />
      <path
         sodipodi:nodetypes="cccc"
         inkscape:connector-curvature="0"
         id="path18-2-7-1-3-6"
         d="m 141.61659,44.645272 c 0.29354,-0.121013 0.50984,-1.140104 1.25795,-0.643741 0.0914,0.141741 0.0216,0.47247 -0.19489,0.614211 -0.24276,0.319294 -0.89741,0.222208 -1.06306,0.02953 z"
         style="fill:url(#radialGradient1029-3-7-1-3-1);fill-opacity:1;stroke:#000000;stroke-width:0.2;stroke-linecap:butt;stroke-linejoin:miter;stroke-miterlimit:4;stroke-dasharray:none;stroke-opacity:1" />
    </g>
  </g>
  <g
     inkscape:groupmode="layer"
     id="layer3"
     inkscape:label="Aleta inferior"
     style="display:inline" />
  <g
     inkscape:groupmode="layer"
     id="layer2"
     inkscape:label="Aleta superior"
     style="display:inline" />
  <g
     inkscape:label="Cuerpo"
     inkscape:groupmode="layer"
     id="layer1"
     style="display:inline" />
  <g
     inkscape:groupmode="layer"
     id="layer4"
     inkscape:label="Ojo">
    <g
       id="g2034">
      <rect
         y="1.6880516"
         x="2.1834924"
         height="16.303438"
         width="63.008797"
         id="rect1609"
         style="display:inline;fill:#805700;fill-opacity:0;fill-rule:nonzero;stroke:none;stroke-width:0.2;stroke-miterlimit:4;stroke-dasharray:none;stroke-opacity:1" />
      <g
         id="g1509">
        <path
           style="display:inline;fill:url(#linearGradient1052);fill-opacity:1;stroke:#000000;stroke-width:0.165;stroke-linecap:butt;stroke-linejoin:miter;stroke-miterlimit:4;stroke-dasharray:none;stroke-opacity:1"
           d="m 35.474409,13.259185 1.85074,3.14074 4.44122,0.614211 6.04762,0.519717 3.827007,-1.039434 5.433409,-1.133929 c 0.815996,-0.381946 3.668627,-0.930853 7.693552,-3.925939 -1.877441,0.108813 -6.50283,1.058442 -8.07153,1.705329"
           id="path14"
           inkscape:connector-curvature="0"
           sodipodi:nodetypes="cccccccc" />
        <path
           style="display:inline;fill:url(#linearGradient1037);stroke:#000000;stroke-width:0.165;stroke-linecap:butt;stroke-linejoin:miter;stroke-opacity:1;fill-opacity:1;stroke-miterlimit:4;stroke-dasharray:none"
           d="M 8.504464,8.4624248 9.496652,6.4308029 11.622768,5.1078862 15.969494,3.4069935 20.032738,2.840029 24.001488,2.603794 28.064732,2.556547 29.576635,2.7455352 27.025298,4.6354161"
           id="path12"
           inkscape:connector-curvature="0" />
        <path
           style="display:inline;fill:#805700;stroke:#000000;stroke-width:0.265;stroke-linecap:butt;stroke-linejoin:miter;stroke-opacity:1;fill-opacity:1;stroke-miterlimit:4;stroke-dasharray:none"
           d="M 2.6458333,12.478422 6.9925593,9.0766364 15.969494,5.3913685 27.025298,4.6354161 34.11235,6.619791 l 6.898066,4.157738 4.157739,1.228423 5.669643,-0.661459 5.858629,1.795387 -6.331101,1.889881 -5.575149,0.472471 -7.087052,-1.228423 -6.142115,-2.740327 -6.142111,-1.133929 -6.803572,0.377976 -6.236607,1.417411 -5.2916666,1.039434 z"
           id="path10"
           inkscape:connector-curvature="0" />
        <path
           style="display:inline;fill:none;stroke:#000000;stroke-width:0.26458332px;stroke-linecap:butt;stroke-linejoin:miter;stroke-opacity:1"
           d="M 9.8450984,12.696939 11.386533,11.013764 V 9.7853414 l -0.8032,-0.8031993"
           id="path16"
           inkscape:connector-curvature="0"
           sodipodi:nodetypes="cccc" />
        <path
           style="fill:url(#radialGradient1029);stroke:#000000;stroke-width:0.2;stroke-linecap:butt;stroke-linejoin:miter;stroke-opacity:1;fill-opacity:1;stroke-miterlimit:4;stroke-dasharray:none"
           d="m 6.8463902,10.9228 c 0.293536,-0.121013 0.509837,-1.1401033 1.257952,-0.643741 0.09139,0.141741 0.02163,0.47247 -0.194894,0.614211 -0.242763,0.319294 -0.897413,0.222208 -1.063058,0.02953 z"
           id="path18"
           inkscape:connector-curvature="0"
           sodipodi:nodetypes="cccc" />
      </g>
    </g>
  </g>
</svg>
